<?xml version="1.0" encoding="UTF-8"?>
<svg width="64px" height="48px" viewBox="0 0 64 48" version="1.1" xmlns="http://www.w3.org/2000/svg" xmlns:xlink="http://www.w3.org/1999/xlink">
    <!-- Generator: Sketch 50.2 (55047) - http://www.bohemiancoding.com/sketch -->
    <title>icon_pencil</title>
    <desc>Created with Sketch.</desc>
    <defs></defs>
    <g id="icon_pencil" stroke="none" stroke-width="1" fill="none" fill-rule="evenodd">
        <g id="2pt" transform="translate(16.000000, 8.000000)">
            <path d="M22.5002266,0.39459386 C21.9740958,-0.131531287 21.113892,-0.131531287 20.5877612,0.39459386 L2.79398742,18.1895259 C2.26785653,18.715651 1.74307816,19.7476137 1.62946635,20.4833774 L0.0159081212,30.8557521 C-0.0977036904,31.5915158 0.409491897,32.0987058 1.14526363,31.9837428 L11.513694,30.3702021 C12.2494657,30.2552391 13.2814396,29.7304664 13.806218,29.2056938 L31.6054018,11.4094093 C32.1315327,10.8832841 32.1315327,10.0217373 31.6054018,9.49561214 L22.5002266,0.39459386 Z" id="Stroke-1" stroke="#313131" stroke-width="2" stroke-linecap="round"></path>
            <path d="M22.5002266,0.39459386 C21.9740958,-0.131531287 21.113892,-0.131531287 20.5877612,0.39459386 L2.79398742,18.1895259 C2.26785653,18.715651 1.74307816,19.7476137 1.62946635,20.4833774 L0.0159081212,30.8557521 C-0.0977036904,31.5915158 0.409491897,32.0987058 1.14526363,31.9837428 L11.513694,30.3702021 C12.2494657,30.2552391 13.2814396,29.7304664 13.806218,29.2056938 L31.6054018,11.4094093 C32.1315327,10.8832841 32.1315327,10.0217373 31.6054018,9.49561214 L22.5002266,0.39459386 Z" id="Stroke-3" stroke="#313131" stroke-width="2" stroke-linecap="round"></path>
            <path d="M25,12 L20,7" id="Stroke-5" stroke="#313131" stroke-width="2" stroke-linecap="round"></path>
            <path d="M3,20 L12,29" id="Stroke-7" stroke="#313131" stroke-width="2" stroke-linecap="round"></path>
            <path d="M1.3303713,31.9815307 C0.475677611,32.1134336 -0.113495428,31.5245815 0.0184793329,30.6703534 L0.932875888,24.7959648 C1.06485065,23.9417367 1.67444835,23.7438824 2.28404606,24.3547183 L7.64630627,29.7171981 C8.25590397,30.3264638 8.05794183,30.9357294 7.20324814,31.0676323 L1.3303713,31.9815307 Z" id="Fill-9" fill="#313131"></path>
        </g>
    </g>
</svg>