<?xml version="1.0" encoding="UTF-8"?>
<svg width="64px" height="48px" viewBox="0 0 64 48" version="1.1" xmlns="http://www.w3.org/2000/svg" xmlns:xlink="http://www.w3.org/1999/xlink">
    <!-- Generator: Sketch 50.2 (55047) - http://www.bohemiancoding.com/sketch -->
    <title>icon_credit</title>
    <desc>Created with Sketch.</desc>
    <defs></defs>
    <g id="icon_credit" stroke="none" stroke-width="1" fill="none" fill-rule="evenodd">
        <g id="クレジットカード" transform="translate(3.000000, 13.000000)">
            <path d="M24.0114592,8.93034919 C23.7771119,9.34988813 23.4878929,9.70083759 23.1438024,9.98434074 C22.7997119,10.268987 22.4076088,10.4804712 21.9686361,10.6210797 C21.5308067,10.7594018 21.0666846,10.8302776 20.5785562,10.8302776 C19.9886867,10.8302776 19.4582615,10.7296797 18.9849941,10.5307702 C18.5105836,10.3307176 18.0841857,10.0414986 17.7058005,9.66311338 C17.4360152,9.39332812 17.2291037,9.10525234 17.0850658,8.80345867 C16.9398847,8.49937868 16.8381437,8.17129237 16.7775563,7.82377238 C16.7181121,7.47396608 16.6826742,7.0990103 16.6735289,6.70004821 C16.6632405,6.30108612 16.6575247,5.87240192 16.6575247,5.41513878 C16.6575247,4.95444616 16.6632405,4.52576196 16.6735289,4.12794303 C16.6826742,3.72898093 16.7181121,3.35516831 16.7775563,3.00536201 C16.8381437,2.65669886 16.9398847,2.33089887 17.0850658,2.02567573 C17.2291037,1.72159574 17.4360152,1.43351995 17.7058005,1.16487786 C18.0841857,0.786492607 18.5105836,0.496130511 18.9849941,0.297221043 C19.4582615,0.0983115758 19.9886867,0 20.5785562,0 C21.076973,0 21.5433814,0.0674463137 21.9766383,0.206911572 C22.4110382,0.346376831 22.7997119,0.560147351 23.1438024,0.8436505 C23.4878929,1.12715365 23.7771119,1.47924627 24.0114592,1.8987852 C24.2458066,2.31718098 24.408135,2.80645254 24.4973013,3.36431358 L22.3881751,3.36431358 C22.2784319,2.93562938 22.0829519,2.57667781 21.8040214,2.28745888 C21.5250909,1.99938309 21.1215562,1.85305889 20.5922741,1.85305889 C20.3041983,1.85305889 20.0469878,1.90450099 19.8217857,2.00166941 C19.5977267,2.1022673 19.411392,2.23830309 19.2616383,2.40634729 C19.1621836,2.5172336 19.0764468,2.63840834 19.0067141,2.77330096 C18.9369815,2.90819359 18.8821099,3.08538306 18.8432426,3.30372621 C18.8020889,3.52435568 18.7746531,3.80442935 18.759792,4.14280408 C18.7460741,4.48117881 18.738072,4.90529037 18.738072,5.41513878 C18.738072,5.92270087 18.7460741,6.34566927 18.759792,6.68518716 C18.7746531,7.02470504 18.8020889,7.30363556 18.8432426,7.52426503 C18.8821099,7.74260818 18.9369815,7.9209408 19.0067141,8.05354711 C19.0764468,8.1895829 19.1621836,8.31075763 19.2616383,8.42164394 C19.411392,8.58968815 19.5977267,8.72572393 19.8217857,8.82517867 C20.0469878,8.9246334 20.3041983,8.97493235 20.5922741,8.97493235 C21.1215562,8.97493235 21.5250909,8.8297513 21.8040214,8.54053236 C22.0829519,8.25245658 22.2784319,7.89236186 22.3881751,7.46367766 L24.4973013,7.46367766 C24.408135,8.02153869 24.2458066,8.51195342 24.0114592,8.93034919 Z M30.3774767,5.07104826 C30.227723,4.92129458 30.0779694,4.8069788 29.9282157,4.72581459 C29.7796052,4.64579354 29.5841252,4.60692617 29.3452052,4.60692617 C29.1954515,4.60692617 29.0445547,4.6332188 28.8959441,4.68694722 C28.7461905,4.74296196 28.612441,4.82984195 28.4924094,4.95101669 C28.3723778,5.07104826 28.2752094,5.21965878 28.2009042,5.39799141 C28.1254557,5.57861035 28.0888747,5.79352403 28.0888747,6.04158928 L28.0888747,10.7388249 L26.14322,10.7388249 L26.14322,2.9459178 L28.0431484,2.9459178 L28.0431484,3.69354304 C28.2329126,3.46376831 28.5015547,3.26714516 28.851361,3.10253043 C29.2000241,2.9379157 29.5841252,2.85675149 30.0025209,2.85675149 C30.3820494,2.85675149 30.7158515,2.91162307 31.0050704,3.02022306 C31.2942893,3.12882306 31.5732198,3.32087358 31.8430051,3.58951568 L30.3774767,5.07104826 Z M56.1085883,10.7389392 C55.7084831,10.7389392 55.3655357,10.6737792 55.0786031,10.5446024 C54.7916705,10.4165687 54.55618,10.245095 54.3698452,10.0381835 C54.1835105,9.82669927 54.0486179,9.59006559 53.9640242,9.32713928 C53.8771442,9.06192666 53.8348474,8.79099825 53.8348474,8.51206773 L53.8348474,4.65162364 L53.0117737,4.65162364 L53.0117737,3.17009106 L53.8348474,3.17009106 L53.8348474,0.865484815 L55.7942199,0.865484815 L55.7942199,3.17009106 L57.170582,3.17009106 L57.170582,4.65162364 L55.7942199,4.65162364 L55.7942199,8.39203616 C55.7942199,8.85844456 56.019422,9.09393508 56.4675399,9.09393508 L57.170582,9.09393508 L57.170582,10.7389392 L56.1085883,10.7389392 Z M37.3860632,5.67612172 C37.3609138,5.55151751 37.3186169,5.4189112 37.2580296,5.27830278 C37.1482864,5.05081437 36.985958,4.85762069 36.7721875,4.70329438 C36.5584169,4.54782491 36.2863454,4.47123333 35.9571159,4.47123333 C35.6278865,4.47123333 35.3558149,4.54782491 35.1420444,4.70329438 C34.9271307,4.85762069 34.7648023,5.05081437 34.6550591,5.27830278 C34.5956149,5.4189112 34.5533181,5.55151751 34.5281686,5.67612172 C34.5030191,5.80072592 34.4858718,5.94705013 34.4767265,6.11738065 L37.4375053,6.11738065 C37.4283601,5.94705013 37.4100696,5.80072592 37.3860632,5.67612172 Z M34.4767265,7.44915955 C34.4767265,7.95672164 34.6230507,8.37397426 34.9168423,8.69748794 C35.211777,9.02214477 35.6324591,9.18333003 36.1811749,9.18333003 C36.6098591,9.18333003 36.9493769,9.12388582 37.1985854,9.0049974 C37.4477938,8.88610898 37.6970022,8.70091741 37.9473537,8.45056584 L39.1282358,9.60286896 C38.9293263,9.80177843 38.7292737,9.97668158 38.5303643,10.1264353 C38.3303116,10.2761889 38.1131116,10.4030795 37.8799074,10.5093931 C37.6455601,10.6122773 37.3883496,10.6945847 37.109419,10.7483131 C36.8293454,10.8020416 36.514977,10.8306205 36.1663138,10.8306205 C35.7079075,10.8306205 35.2609328,10.7700331 34.827676,10.6500016 C34.393276,10.5311131 34.0091749,10.3196289 33.6753728,10.0155489 C33.3415707,9.70918264 33.0717855,9.30107528 32.8671602,8.78779741 C32.662535,8.27451953 32.5607939,7.62177639 32.5607939,6.83528378 C32.5607939,6.1974017 32.6431013,5.6303954 32.807716,5.13655121 C32.9723307,4.64385017 33.2043918,4.22545439 33.5038992,3.88936598 C33.8022634,3.5498481 34.1589286,3.29149442 34.5727517,3.11773443 C34.9865749,2.94397443 35.4484107,2.85595128 35.9571159,2.85595128 C36.4955433,2.85595128 36.9768127,2.94969022 37.4009243,3.14059758 C37.8238927,3.33036179 38.180558,3.58985862 38.4697769,3.91794493 C38.7589958,4.24717439 38.9796253,4.63927754 39.1282358,5.09311121 C39.2779895,5.54694488 39.3522948,6.04078907 39.3522948,6.58035958 L39.3522948,7.44915955 L34.4767265,7.44915955 Z M45.352959,5.95413771 C45.3232369,5.68435245 45.2615064,5.44886193 45.1677674,5.24880931 C45.0740285,5.051043 44.9414222,4.89214406 44.7688053,4.77897143 C44.5961885,4.66465564 44.3664138,4.60635459 44.0806243,4.60635459 C43.7948348,4.60635459 43.5650601,4.66465564 43.3935864,4.77897143 C43.2198264,4.89214406 43.0895064,5.051043 43.0003401,5.24880931 C42.9111738,5.44886193 42.8528728,5.68435245 42.8231506,5.95413771 C42.7945717,6.2227798 42.7797106,6.51542822 42.7797106,6.83551242 C42.7797106,7.15559662 42.7945717,7.45053134 42.8231506,7.72603239 C42.8528728,7.99924712 42.9111738,8.23588079 43.0003401,8.43593342 C43.0895064,8.63598604 43.2198264,8.79259867 43.3935864,8.90805761 C43.5650601,9.0223734 43.7948348,9.07953129 44.0806243,9.07953129 C44.3664138,9.07953129 44.5961885,9.0223734 44.7688053,8.90805761 C44.9414222,8.79259867 45.0740285,8.63598604 45.1677674,8.43593342 C45.2615064,8.23588079 45.3232369,7.99924712 45.352959,7.72603239 C45.3826811,7.45053134 45.3975421,7.15559662 45.3975421,6.83551242 C45.3975421,6.51542822 45.3826811,6.2227798 45.352959,5.95413771 Z M45.4421253,10.7393965 L45.4421253,10.0066323 C45.1734832,10.3061397 44.8899801,10.518767 44.5916159,10.6422281 C44.2943948,10.7679754 43.9354432,10.8308491 43.5193338,10.8308491 C43.1398054,10.8308491 42.781997,10.7679754 42.4447654,10.6422281 C42.1063907,10.518767 41.8286033,10.3461502 41.6102602,10.1255207 C41.4113507,9.93689969 41.2593107,9.71284075 41.1541402,9.45448707 C41.0501128,9.19384708 40.9735212,8.92177551 40.9232223,8.63027025 C40.8740665,8.34219447 40.8443444,8.04154396 40.834056,7.73289133 C40.8237676,7.42423871 40.8191949,7.12473135 40.8191949,6.83551242 C40.8191949,6.54629348 40.8237676,6.24907243 40.834056,5.94499244 C40.8443444,5.64205561 40.8740665,5.34369141 40.9232223,5.05447247 C40.9735212,4.76525353 41.051256,4.49432512 41.1564265,4.23940092 C41.2604539,3.98561987 41.4124938,3.75927462 41.6125465,3.55922199 C41.8308896,3.33973568 42.108677,3.16711885 42.4424791,3.04251464 C42.7762812,2.91791043 43.1329464,2.85617991 43.5124748,2.85617991 C43.9102938,2.85617991 44.2623864,2.9133378 44.5664664,3.02765359 C44.8716895,3.14196937 45.1529064,3.34545147 45.4124032,3.63467041 L45.3975421,0.0863084183 L47.3569147,0.0863084183 L47.3569147,10.7393965 L45.4421253,10.7393965 Z M49.5411464,10.738139 L51.500519,10.738139 L51.500519,2.94523191 L49.5411464,2.94523191 L49.5411464,10.738139 Z M49.5114243,1.613453 L51.5153801,1.613453 L51.5153801,0.0290362096 L49.5114243,0.0290362096 L49.5114243,1.613453 Z" id="credit" fill="#231916"></path>
            <path d="M12.5974,2 L4.4,2 C2.53,2 1,3.55454545 1,5.45454545 L1,17.5454545 C1,19.4454545 2.53,21 4.4,21 L31.6,21 C33.47,21 35,19.4454545 35,17.5454545 L35,13.8473636" id="thin" stroke="#313131" stroke-width="2"></path>
        </g>
    </g>
</svg>