<?xml version="1.0" encoding="UTF-8"?>
<svg width="28px" height="28px" viewBox="0 0 28 28" version="1.1" xmlns="http://www.w3.org/2000/svg" xmlns:xlink="http://www.w3.org/1999/xlink">
    <!-- Generator: Sketch 50.2 (55047) - http://www.bohemiancoding.com/sketch -->
    <title>Fill 1</title>
    <desc>Created with Sketch.</desc>
    <defs></defs>
    <g id="Symbols" stroke="none" stroke-width="1" fill="none" fill-rule="evenodd">
        <g id="pc/header/top-white" transform="translate(-871.000000, -18.000000)" fill="#5A5A5A">
            <path d="M894.957215,18 C897.185807,18 898.999585,19.7121481 898.999585,21.8183704 L898.999585,42.1805926 C898.999585,44.2868148 897.185807,46 894.957215,46 L881.850104,46 C879.620474,46 877.806696,44.2868148 877.806696,42.1805926 L877.806696,38.9222222 C877.806696,38.0635556 878.503585,37.3666667 879.362252,37.3666667 C880.220919,37.3666667 880.917807,38.0635556 880.917807,38.9222222 L880.917807,42.1805926 C880.917807,42.5642963 881.345067,42.8888889 881.850104,42.8888889 L894.957215,42.8888889 C895.462252,42.8888889 895.888474,42.5642963 895.888474,42.1805926 L895.888474,21.8183704 C895.888474,21.4357037 895.462252,21.1111111 894.957215,21.1111111 L881.850104,21.1111111 C881.345067,21.1111111 880.917807,21.4357037 880.917807,21.8183704 L880.917807,25.0777778 C880.917807,25.9364444 880.220919,26.6333333 879.362252,26.6333333 C878.503585,26.6333333 877.806696,25.9364444 877.806696,25.0777778 L877.806696,21.8183704 C877.806696,19.7121481 879.620474,18 881.850104,18 L894.957215,18 Z M884.116846,35.5476 L886.336914,33.558563 L872.685067,33.558563 C871.754796,33.558563 870.999793,32.8616741 870.999793,32.0030074 C870.999793,31.1443407 871.754796,30.4474519 872.685067,30.4474519 L886.31332,30.4474519 L884.117969,28.5050815 C883.446107,27.9108593 883.423636,26.9267111 884.067411,26.3055259 C884.711186,25.6833037 885.777403,25.6636 886.450389,26.2588593 L891.67474,30.8788593 C891.679235,30.8840444 891.683729,30.8913037 891.689346,30.8964889 C891.727546,30.9296741 891.759004,30.9701185 891.79271,31.0074519 C891.828662,31.0478963 891.869109,31.0852296 891.901691,31.1287852 C891.938767,31.178563 891.965731,31.2356 891.99719,31.2895259 C892.016289,31.3247852 892.04213,31.3579704 892.058983,31.3953037 C892.129765,31.5477481 892.166841,31.7147111 892.181446,31.8878963 C892.183693,31.9262667 892.192681,31.962563 892.192681,32.0019704 L892.192681,32.0030074 C892.192681,32.328637 892.0837,32.6304148 891.89832,32.8813778 C891.884838,32.8990074 891.865738,32.914563 891.852256,32.9321926 C891.800574,32.9954519 891.745522,33.0587111 891.683729,33.1147111 C891.680358,33.1178222 891.676987,33.1219704 891.67474,33.1250815 L886.448142,37.7948593 C885.777403,38.3890815 884.708939,38.3683407 884.066288,37.7481926 C883.421389,37.1270074 883.44386,36.1428593 884.116846,35.5476 Z" id="Fill-1"></path>
        </g>
    </g>
</svg>