<?xml version="1.0" encoding="UTF-8"?>
<svg width="24px" height="24px" viewBox="0 0 24 24" version="1.1" xmlns="http://www.w3.org/2000/svg" xmlns:xlink="http://www.w3.org/1999/xlink">
    <!-- Generator: Sketch 52.5 (67469) - http://www.bohemiancoding.com/sketch -->
    <title>Group</title>
    <desc>Created with Sketch.</desc>
    <g id="Symbols" stroke="none" stroke-width="1" fill="none" fill-rule="evenodd">
        <g id="ico/modal2" transform="translate(-2.000000, -2.000000)">
            <g id="Group" transform="translate(3.000000, 3.000000)">
                <path d="M10.9698934,0.469893422 C5.19489342,0.469893422 0.469893422,5.19489342 0.469893422,10.9698934 C0.469893422,16.7448934 5.19489342,21.4698934 10.9698934,21.4698934 C16.7448934,21.4698934 21.4698934,16.7448934 21.4698934,10.9698934 C21.4698934,5.19489342 16.7448934,0.469893422 10.9698934,0.469893422 L10.9698934,0.469893422 Z" id="Shape" stroke="#8C8C8C" stroke-width="1.5" fill="#8C8C8C"></path>
                <path d="M12.3900179,18.0401284 L9.51423601,18.0401284 L9.51423601,15.3957594 L12.3900179,15.3957594 L12.3900179,18.0401284 Z M12.238661,12.7513904 L12.238661,13.4859373 L9.66559295,13.4859373 L9.66559295,12.604481 C9.96830683,9.5193838 12.6927318,9.81320258 12.5413748,7.90338051 C12.6927318,6.87501478 12.087304,6.28737723 11.0278054,6.28737723 C9.81694989,6.28737723 9.21152212,7.31574295 9.21152212,8.63792746 L6.48709718,8.63792746 C6.48709718,6.14046784 8.30338048,4.23064577 10.8764485,4.23064577 C14.3576581,4.23064577 15.4171567,6.28737723 15.4171567,7.60956173 C15.5685137,10.9884777 12.5413748,10.5477495 12.238661,12.7513904 Z" id="Combined-Shape" fill="#FFFFFF"></path>
            </g>
        </g>
    </g>
</svg>