<?xml version="1.0" encoding="UTF-8"?>
<svg width="28px" height="28px" viewBox="0 0 28 28" version="1.1" xmlns="http://www.w3.org/2000/svg" xmlns:xlink="http://www.w3.org/1999/xlink">
    <!-- Generator: Sketch 50.2 (55047) - http://www.bohemiancoding.com/sketch -->
    <title>icon/top-g</title>
    <desc>Created with Sketch.</desc>
    <defs></defs>
    <g id="icon/top-g" stroke="none" stroke-width="1" fill="none" fill-rule="evenodd">
        <path d="M20,26 L20,21 C20,19.8954305 19.1045695,19 18,19 L9.99783232,19 C9.99249124,19 9.98715018,19.0000214 9.98180927,19.0000642 C8.87727522,19.0089135 7.98904722,19.911489 7.9978965,21.016023 L8.03782703,26 L5.94213604,26 C4.87411511,26 4,25.252734 4,24.3397012 L4,10.5626422 C4,10.506071 4.00307787,10.4481842 4.01077255,10.3929286 C4.04924592,10.0206112 4.236996,9.65618747 4.56786704,9.37333151 L12.625731,2.48348636 C13.3813481,1.83883788 14.6186519,1.83883788 15.374269,2.48348636 L23.432133,9.37333151 C23.7645429,9.65618747 23.9507541,10.0206112 23.9907664,10.3929286 C23.9969221,10.4481842 24,10.506071 24,10.5626422 L24,24.3397012 C24,25.252734 23.1258849,26 22.057864,26 L20,26 Z" id="Page-1" stroke="#5A5A5A" stroke-width="2" fill="#5A5A5A"></path>
    </g>
</svg>