<?xml version="1.0" encoding="UTF-8"?>
<svg width="28px" height="28px" viewBox="0 0 28 28" version="1.1" xmlns="http://www.w3.org/2000/svg" xmlns:xlink="http://www.w3.org/1999/xlink">
    <!-- Generator: Sketch 52.5 (67469) - http://www.bohemiancoding.com/sketch -->
    <title>ico/beginner</title>
    <desc>Created with Sketch.</desc>
    <g id="ico/beginner" stroke="none" stroke-width="1" fill="none" fill-rule="evenodd" stroke-linecap="round" stroke-linejoin="round">
        <g id="Group" transform="translate(3.617621, 5.415418)" stroke="#5A5A5A">
            <path d="M11.696712,10.5555582 C11.8331534,10.27218 12.2441567,9.34941664 12.4049476,8.17098316 C12.6656555,6.26374294 12.1513766,4.60419625 10.9183666,3.37160605 C8.13874132,0.591980793 1.83557057,0.138155858 1.56856534,0.120103617 L0.717171287,0.0625883383 L0.841857694,0.907265276 C0.877542356,1.14950116 1.74992738,6.87751912 4.50814184,9.6361534 C5.67146182,10.7994734 7.16475996,11.414509 8.82556611,11.414509 C9.79744837,11.414509 10.5959452,11.2045992 11.008208,11.0698372 C11.3142564,10.9690805 11.6341589,10.6899005 11.696712,10.5555582" id="Fill-1" stroke-width="1.4"></path>
            <path d="M15.1667646,10.688599 C16.2809657,10.6403198 17.2511686,10.1986696 17.9724186,9.41192777 C19.895612,7.31450929 20.0240768,2.78843471 20.0286948,2.59699699 L20.0475867,1.80983533 L19.265043,1.89673798 C19.1113891,1.91353076 15.82882,2.43704574 13.6835421,3.66249901" id="Fill-4" stroke-width="1.4"></path>
            <path d="M11.7615324,13.5177483 L11.7615324,17.4353659 C11.9008294,17.4327703 12.0401263,17.4293096 12.1794232,17.4293096 C12.5142549,17.4293096 12.8473562,17.4396919 13.1804576,17.4578611 L13.1804576,12.4570152 L11.7615324,13.5177483 Z" id="Fill-1" stroke-width="0.6" fill="#5A5A5A"></path>
            <path d="M6.22701701,4.43845671 C8.16041156,5.78342683 10.5,7.75885169 11.3339897,10.5450438" id="Path-4" stroke-width="1.4"></path>
            <path d="M16.2722626,5.4471843 C15.5717573,5.98187289 15.0794575,6.59173143 14.7953632,7.27675993" id="Path-5" stroke-width="1.4"></path>
        </g>
    </g>
</svg>