<?xml version="1.0" encoding="UTF-8"?>
<svg width="64px" height="48px" viewBox="0 0 64 48" version="1.1" xmlns="http://www.w3.org/2000/svg" xmlns:xlink="http://www.w3.org/1999/xlink">
    <!-- Generator: Sketch 50.2 (55047) - http://www.bohemiancoding.com/sketch -->
    <title>icon_debit</title>
    <desc>Created with Sketch.</desc>
    <defs></defs>
    <g id="icon_debit" stroke="none" stroke-width="1" fill="none" fill-rule="evenodd">
        <g id="デビットカード" transform="translate(7.000000, 13.000000)">
            <path d="M12.5974,2 L4.4,2 C2.53,2 1,3.55454545 1,5.45454545 L1,17.5454545 C1,19.4454545 2.53,21 4.4,21 L31.6,21 C33.47,21 35,19.4454545 35,17.5454545 L35,13.8473636" id="thin" stroke="#313131" stroke-width="2"></path>
            <path d="M22.6872986,4.3057141 C22.6770715,4.01140148 22.6577537,3.75572449 22.6270725,3.53527411 C22.5963912,3.31482373 22.5520739,3.1307363 22.4918478,2.98073913 C22.4316216,2.82960563 22.3520777,2.69551725 22.2520796,2.57733767 C22.0725375,2.35688729 21.8589052,2.19098133 21.6089099,2.08189248 C21.3589146,1.97166729 21.0543749,1.91598653 20.6941544,1.91598653 L19.1214569,1.91598653 L19.1214569,8.86699155 L20.6941544,8.86699155 C21.0543749,8.86699155 21.3589146,8.81358347 21.6089099,8.70222194 C21.8589052,8.59313309 22.0725375,8.42836348 22.2520796,8.20904944 C22.4418487,7.97041758 22.5645736,7.63519664 22.6191181,7.20452296 C22.6736625,6.77498563 22.7020711,6.15567914 22.7020711,5.34773987 C22.7020711,4.94774742 22.6963893,4.60002672 22.6872986,4.3057141 Z M24.7838499,6.54544451 C24.7838499,6.93520987 24.754305,7.31361181 24.6952152,7.68405936 C24.6338527,8.0545069 24.5293093,8.40790932 24.3804484,8.74767562 C24.2293149,9.08744193 24.0054555,9.40561774 23.7054612,9.70674841 C23.3554678,10.0567418 22.9395666,10.3135551 22.4543485,10.4783247 C21.9702667,10.6430944 21.4486856,10.7237747 20.8896053,10.7237747 L17.039678,10.7237747 L17.039678,0.0592034268 L20.8896053,0.0592034268 C21.4486856,0.0592034268 21.9702667,0.141020063 22.4543485,0.306926019 C22.9395666,0.471695633 23.3554678,0.728508962 23.7054612,1.07736601 C24.0054555,1.37736034 24.2293149,1.69212712 24.3804484,2.02166635 C24.5293093,2.35120557 24.6338527,2.69551725 24.6952152,3.05573772 C24.754305,3.41482184 24.7838499,3.78867841 24.7838499,4.17958012 L24.7838499,5.34773987 L24.7838499,6.54544451 Z M31.2038422,5.65512042 C31.1788427,5.53012278 31.1356617,5.39717075 31.0765719,5.25626432 C30.9663467,5.0267232 30.8038498,4.83581772 30.5890811,4.68127519 C30.3754488,4.52559631 30.1027267,4.44832504 29.7720511,4.44832504 C29.4436482,4.44832504 29.1709261,4.52559631 28.9561574,4.68127519 C28.7413888,4.83581772 28.5788918,5.0267232 28.469803,5.25626432 C28.4095768,5.39717075 28.3675322,5.53012278 28.3413963,5.65512042 C28.3163968,5.78011806 28.2993517,5.92556986 28.2902609,6.09715752 L31.2549776,6.09715752 C31.2458869,5.92556986 31.2277054,5.78011806 31.2038422,5.65512042 Z M28.2902609,7.43008688 C28.2902609,7.93916817 28.4368491,8.35620575 28.7311617,8.68006327 C29.0266106,9.00505713 29.4481936,9.16755405 29.9970469,9.16755405 C30.4265842,9.16755405 30.7663505,9.10732792 31.0152094,8.98687565 C31.2652047,8.86642338 31.5152,8.68347229 31.7651953,8.43234067 L32.9481275,9.58686431 C32.7481312,9.78686053 32.5492714,9.96072089 32.3492751,10.1107181 C32.1504153,10.2618516 31.9322376,10.3879855 31.6981511,10.492529 C31.4629282,10.5982088 31.2061149,10.6777528 30.9265747,10.7334336 C30.6458982,10.787978 30.3311314,10.8152502 29.9822744,10.8152502 C29.5231922,10.8152502 29.0754734,10.7550241 28.642527,10.6357081 C28.2073079,10.5141195 27.8220879,10.3038962 27.4880034,9.99822018 C27.1539188,9.69481682 26.8846057,9.2845973 26.6800641,8.77097064 C26.4743861,8.2550713 26.3721153,7.60394723 26.3721153,6.81532577 C26.3721153,6.17670148 26.4550683,5.60966673 26.6187016,5.11422155 C26.7846075,4.62104905 27.0164214,4.20401148 27.3164157,3.86424517 C27.6152737,3.5256152 27.9720851,3.26652919 28.38685,3.09266884 C28.8016149,2.91767214 29.2629698,2.8301738 29.7720511,2.8301738 C30.3118136,2.8301738 30.7936227,2.92676288 31.2186147,3.11653202 C31.6424703,3.30516482 31.9992817,3.56425084 32.2901853,3.89379006 C32.5788163,4.22446563 32.7992666,4.61650368 32.9481275,5.06876786 C33.0981246,5.52557741 33.1731232,6.01988626 33.1731232,6.56078513 L33.1731232,7.43008688 L28.2902609,7.43008688 Z M39.4955037,5.93147884 C39.4659588,5.66216574 39.4057327,5.42807926 39.3182344,5.22808304 C39.2284633,5.02695047 39.097784,4.86899891 38.92506,4.75650104 C38.752336,4.64059414 38.5227949,4.58377703 38.2364366,4.58377703 C37.9500784,4.58377703 37.7205373,4.64059414 37.5478133,4.75650104 C37.3750893,4.86899891 37.2444099,5.02695047 37.1546389,5.22808304 C37.0660042,5.42807926 37.0069144,5.66216574 36.9785058,5.93147884 C36.9478246,6.20079193 36.9330522,6.49510455 36.9330522,6.81555304 C36.9330522,7.13600153 36.9478246,7.43145049 36.9785058,7.7064453 C37.0069144,7.9814401 37.0660042,8.21893561 37.1546389,8.41779549 C37.2444099,8.61779172 37.3750893,8.77574328 37.5478133,8.89051383 C37.7205373,9.00528439 37.9500784,9.0621015 38.2364366,9.0621015 C38.5227949,9.0621015 38.752336,9.00528439 38.92506,8.89051383 C39.097784,8.77574328 39.2284633,8.61779172 39.3182344,8.41779549 C39.4057327,8.21893561 39.4659588,7.9814401 39.4955037,7.7064453 C39.5250486,7.43145049 39.5398211,7.13600153 39.5398211,6.81555304 C39.5398211,6.49510455 39.5250486,6.20079193 39.4955037,5.93147884 M41.4863752,7.71439969 C41.4772845,8.02348476 41.4466032,8.32347909 41.3977405,8.61324635 C41.3477415,8.90187726 41.2681975,9.17687206 41.1579723,9.43709442 C41.0488835,9.69731677 40.9000227,9.92231252 40.7102535,10.1109453 C40.4920758,10.3313957 40.2148083,10.5029834 39.8818601,10.6268447 C39.5489118,10.7518423 39.1921004,10.8154775 38.8136984,10.8154775 C38.3966609,10.8154775 38.0353041,10.7518423 37.7307644,10.6268447 C37.4284973,10.5029834 37.1410028,10.2904874 36.872826,9.99162939 L36.872826,10.7245701 L34.9717256,10.7245701 L34.9717256,0.0588625242 L36.9330522,0.0588625242 L36.9330522,3.60993179 C37.1921382,3.32016454 37.470542,3.11675929 37.7694,3.00198873 C38.068258,2.88835452 38.4159787,2.83040107 38.8148348,2.83040107 C39.1921004,2.83040107 39.5489118,2.89289989 39.8829964,3.01903387 C40.2159447,3.1440315 40.4920758,3.31448283 40.7102535,3.53606955 C40.9000227,3.73492943 41.0500198,3.96219786 41.1579723,4.21560217 C41.2681975,4.47127915 41.3477415,4.74286493 41.3977405,5.03263218 C41.4466032,5.32239943 41.4772845,5.62012108 41.4863752,5.92466078 C41.4977386,6.22920048 41.502284,6.52578579 41.502284,6.81555304 C41.502284,7.10418395 41.4977386,7.40417828 41.4863752,7.71439969 M43.3598625,10.723661 L45.3223255,10.723661 L45.3223255,2.92039937 L43.3598625,2.92039937 L43.3598625,10.723661 Z M43.3303177,1.58633366 L43.3303177,0 L45.3382343,0 L45.3382343,1.58633366 L43.3303177,1.58633366 Z M49.9356474,10.7242292 C49.5345186,10.7242292 49.1913433,10.6594577 48.9038487,10.5287783 C48.6174905,10.401508 48.3811313,10.2299203 48.1947712,10.0208334 C48.0084111,9.81061009 47.8731864,9.57311457 47.7879607,9.30834685 C47.7015987,9.04471547 47.659554,8.77199335 47.659554,8.49245317 L47.659554,4.62775347 L46.8345696,4.62775347 L46.8345696,3.14482694 L47.659554,3.14482694 L47.659554,0.839188689 L49.6208806,0.839188689 L49.6208806,3.14482694 L51.0004,3.14482694 L51.0004,4.62775347 L49.6208806,4.62775347 L49.6208806,8.37313725 C49.6208806,8.84244656 49.8458764,9.07653305 50.2958679,9.07653305 L51.0004,9.07653305 L51.0004,10.7242292 L49.9356474,10.7242292 Z" id="org" fill="#231916"></path>
        </g>
    </g>
</svg>