<svg id="_100_" data-name="100%" xmlns="http://www.w3.org/2000/svg" width="64" height="48" viewBox="0 0 64 48"><defs><style>.cls-1{fill:none;}.cls-2,.cls-3{fill:#313131;}.cls-2{fill-rule:evenodd;}</style></defs><rect class="cls-1" width="64" height="48"/><path class="cls-2" d="M42.318,14.035a4.84,4.84,0,1,0,4.84,4.84A4.84,4.84,0,0,0,42.318,14.035Zm0,8.43a3.59,3.59,0,1,1,3.59-3.59A3.59,3.59,0,0,1,42.318,22.465Z"/><path class="cls-2" d="M24.725,16.492a2.382,2.382,0,1,0,2.381,2.382A2.381,2.381,0,0,0,24.725,16.492Zm.017,3.9a1.5,1.5,0,1,1,1.5-1.5A1.5,1.5,0,0,1,24.742,20.394Z"/><path class="cls-2" d="M7.373,17.208a1.663,1.663,0,1,0,1.663,1.663A1.663,1.663,0,0,0,7.373,17.208Zm0,2.626a.963.963,0,1,1,.964-.963A.963.963,0,0,1,7.373,19.834Z"/><path id="Combined-Shape-2" class="cls-2" d="M27.918,35.945l1.18,2.87h0l1.25-2.87h1.84l-3.45,7.62H26.9l1.34-2.93h0l-2.14-4.69Zm25,0,1.18,2.87h0l1.27-2.87H57.2l-3.46,7.62h-1.8l1.34-2.93h0l-2.18-4.69Zm-4-.18a4,4,0,0,1,1.86.42v1.27a4.223,4.223,0,0,0-1.93-.63c-.3,0-.66.08-.66.46s.39.4.88.59c.84.33,2,.79,2,2a1.661,1.661,0,0,1-.62,1.38,2.766,2.766,0,0,1-1.74.49,5.11,5.11,0,0,1-2.05-.43v-1.25a4.551,4.551,0,0,0,1.86.49,1.12,1.12,0,0,0,.78-.22.27.27,0,0,0,.1-.22c0-.34-.47-.52-1-.73-.83-.32-1.86-.72-1.86-1.84a1.52,1.52,0,0,1,.46-1.11,2.691,2.691,0,0,1,1.91-.67Zm-15.13,2.87v1.07h-2.24v-1.07Zm8.53-6.44a.994.994,0,0,0,.33.42,3.841,3.841,0,0,1-.62.72,5.517,5.517,0,0,1-1.57,1s0,.07-.06.07h0l-.3-.48a4.556,4.556,0,0,0,1.57-.93A4.278,4.278,0,0,0,42.318,32.2Zm-3.85-.76.45.35H38.8a5.5,5.5,0,0,1-.72.67v1.86h-.55v-1.38a6.352,6.352,0,0,1-.9.45,2.172,2.172,0,0,0-.39-.46,4.56,4.56,0,0,0,1.25-.59,5.115,5.115,0,0,0,.98-.89Zm-4.91.39c.21,0,.33.13.59.47a10.959,10.959,0,0,0,.89,1l.32.27c-.12.15-.28.38-.34.47a15.533,15.533,0,0,1-1.26-1.44c-.12-.14-.16-.16-.22-.16s-.17.11-.24.19a8.766,8.766,0,0,0-.59.78h-.05l-.41-.43a1.8,1.8,0,0,0,.39-.36,4.873,4.873,0,0,1,.71-.74.448.448,0,0,1,.21-.04Zm12.8.89v.54h-2.82v-.54Zm-6.19-.52a4.393,4.393,0,0,1,.76.44c-.09.11-.13.17-.32.43a3.588,3.588,0,0,0-.73-.44Zm.32-.71a3.706,3.706,0,0,1,.81.37,2.957,2.957,0,0,0-.3.43,3.508,3.508,0,0,0-.79-.41Zm1.41.12c.1.08.3.24.37.31l-.25.24a2.888,2.888,0,0,0-.36-.33Zm.36-.37a4.216,4.216,0,0,1,.37.31l-.24.24c-.12-.11-.24-.23-.37-.33Zm-7.42.41a.24.24,0,0,0-.1.47.231.231,0,0,0,.1,0,.24.24,0,0,0,0-.47m0,.74a.51.51,0,1,1,.5-.52v.02a.509.509,0,0,1-.5.5M38.7,38.1a1.473,1.473,0,0,0-.39-.91,1.26,1.26,0,0,0-1.68,0,1.437,1.437,0,0,0-.38.91Zm-2,2.1a2,2,0,0,0,1.32.42,3.319,3.319,0,0,0,2.08-.79v1.08a4.472,4.472,0,0,1-3.91.5,2.865,2.865,0,0,1-1.05-.65,2.786,2.786,0,0,1-.77-2,3.187,3.187,0,0,1,.21-1.17,2.6,2.6,0,0,1,.61-.92,2.442,2.442,0,0,1,.93-.61,3.125,3.125,0,0,1,1.19-.22,2.843,2.843,0,0,1,2.1.84,3.119,3.119,0,0,1,.79,2.34h-4a1.62,1.62,0,0,0,.55,1.18Zm7.15-1.38a5.516,5.516,0,0,0-1.16.52.781.781,0,0,0-.39.67.645.645,0,0,0,.18.44.569.569,0,0,0,.41.17,1.487,1.487,0,0,0,1-.43h0v-1.36h0Zm.42,2.68a.739.739,0,0,1-.32-.48h0a3.114,3.114,0,0,1-1.85.64,1.618,1.618,0,0,1-1.12-.46,1.278,1.278,0,0,1-.4-.9c0-1.29.92-1.58,3.14-2.27l.19-.06h0a.9.9,0,0,0-.2-.68,1,1,0,0,0-.78-.27,2.84,2.84,0,0,0-1.1.25,3.668,3.668,0,0,0-1,.67v-1.4a4.475,4.475,0,0,1,2.43-.68,2.712,2.712,0,0,1,1.95.58,1.521,1.521,0,0,1,.41,1.11V40.1a.419.419,0,0,0,.1.32.267.267,0,0,0,.2.07.744.744,0,0,0,.4-.13v.93a3.645,3.645,0,0,1-1.38.37,1.17,1.17,0,0,1-.66-.15ZM24.2,38.815a5.886,5.886,0,0,0-1.17.52.792.792,0,0,0-.38.67.6.6,0,0,0,.18.44.54.54,0,0,0,.4.17,1.52,1.52,0,0,0,1-.43h0v-1.36h0Zm.41,2.68a.769.769,0,0,1-.31-.48h0a3.069,3.069,0,0,1-1.84.64,1.655,1.655,0,0,1-1.19-.46,1.306,1.306,0,0,1-.39-.9c0-1.29.92-1.58,3.13-2.27l.2-.06h0a.893.893,0,0,0-.19-.68,1,1,0,0,0-.79-.27,2.752,2.752,0,0,0-1.09.25,3.5,3.5,0,0,0-1,.67v-1.4a4.475,4.475,0,0,1,2.43-.68,2.662,2.662,0,0,1,1.94.58,1.488,1.488,0,0,1,.42,1.11V40.1a.419.419,0,0,0,.1.32.24.24,0,0,0,.2.07.744.744,0,0,0,.4-.13v.93a3.658,3.658,0,0,1-1.39.37,1.223,1.223,0,0,1-.66-.15Z"/><path class="cls-3" d="M34.383,15.14a13.186,13.186,0,0,0-2.4-5.365l-.09-.13a9.81,9.81,0,0,0-3.05-2.56,9,9,0,0,0-4.05-1h-.13l-3.89-.01a9.187,9.187,0,0,0-4.09,1,10.457,10.457,0,0,0-1.9,1.2l-.86-.08a1.4,1.4,0,0,0-1.43.87,41.936,41.936,0,0,0-2.94,20.79c.78,6.2,2.95,9.61,3.36,10.2v.07a1.2,1.2,0,0,0,.3.3l3,2.23a1.387,1.387,0,0,0,.92.34,1.492,1.492,0,0,0,.68-.17,1.736,1.736,0,0,0,.44-.37,1.341,1.341,0,0,0,.21-.37,49.5,49.5,0,0,0,2.43-8.36c.13-.7.24-1.35.34-2a9.181,9.181,0,0,0,3.8,0,10.546,10.546,0,0,0,4.06-1.9,13.111,13.111,0,0,0,3-3.22,15.636,15.636,0,0,0,1.808-3.827,4.087,4.087,0,0,0,.477-7.638ZM20.808,8.2a10.778,10.778,0,0,0-3.36,2.68c-.16-.4-.34-.82-.51-1.22-3.44,8.54-4,15.75-3.42,21.23a26.938,26.938,0,0,0,3.19,10.61l-3-2.19c-.25-.34-2.39-3.47-3.16-9.63a40.551,40.551,0,0,1,3-20.09l1.48.13.22-.19a9.011,9.011,0,0,1,1.85-1.2,7.834,7.834,0,0,1,3.47-.84h2.06A8.994,8.994,0,0,0,20.808,8.2ZM23,23.2a6.528,6.528,0,0,1-1.08-3.8,7.784,7.784,0,0,1,1.64-4.85,5.343,5.343,0,0,1,1.934-1.566l0,0h.01l-.006,0a5.221,5.221,0,0,1,2.046,4.4c0,2.82-1.86,5.43-4.28,5.82Zm7.78-.16a6.41,6.41,0,0,1-1.3,1.43,5.068,5.068,0,0,1-2.22,1,4.124,4.124,0,0,1-.7.08,3.769,3.769,0,0,1-2.68-1.23,4.184,4.184,0,0,1-.5-.61h.28c2.69-.42,4.69-3.26,4.69-6.37a5.682,5.682,0,0,0-2.25-4.73,4.008,4.008,0,0,1,1.57-.38l-.01-.03a4.455,4.455,0,0,1,3.25,1.75,6.54,6.54,0,0,1,.63,1,4.092,4.092,0,0,0-.522,7.675C30.934,22.759,30.868,22.9,30.778,23.035Zm4.761-3.281a3.006,3.006,0,0,1-.2.489c-.026.05-.051.1-.08.148a3.027,3.027,0,0,1-.4.535v0a3.01,3.01,0,0,1-.574.469h0a2.971,2.971,0,0,1-2.749.237h0c-.033-.014-.062-.033-.095-.048a3.023,3.023,0,0,1-.363-.2c-.054-.034-.1-.072-.155-.109a3.118,3.118,0,0,1-.267-.22c-.043-.041-.087-.079-.129-.122a3.081,3.081,0,0,1-.321-.39c-.01-.014-.016-.03-.026-.044a2.96,2.96,0,0,1-.225-.415c-.022-.05-.04-.1-.06-.152a2.985,2.985,0,0,1-.115-.369c-.012-.052-.026-.1-.036-.157a2.768,2.768,0,0,1,0-1.108c.012-.064.033-.125.049-.188a3.132,3.132,0,0,1,.1-.333c.03-.076.065-.147.1-.22s.085-.167.134-.247.1-.157.156-.232c.044-.059.092-.115.141-.171a2.935,2.935,0,0,1,.223-.237c.029-.028.062-.051.093-.077a2.965,2.965,0,0,1,1.214-.633h0a2.91,2.91,0,0,1,3.072,1.047l.017.021a2.993,2.993,0,0,1,.307.486c.014.027.03.051.042.077a3.013,3.013,0,0,1,.177.493c.011.043.029.083.039.126a3.026,3.026,0,0,1,.075.65,2.931,2.931,0,0,1-.093.706C35.58,19.634,35.558,19.693,35.539,19.754Z"/></svg>