<?xml version="1.0" encoding="UTF-8"?>
<svg width="36px" height="36px" viewBox="0 0 36 36" version="1.1" xmlns="http://www.w3.org/2000/svg" xmlns:xlink="http://www.w3.org/1999/xlink">
    <!-- Generator: Sketch 50.2 (55047) - http://www.bohemiancoding.com/sketch -->
    <title>ico/menu/icon_menu_procedure</title>
    <desc>Created with Sketch.</desc>
    <defs></defs>
    <g id="ico/menu/icon_menu_procedure" stroke="none" stroke-width="1" fill="none" fill-rule="evenodd">
        <rect id="Rectangle-8" x="0" y="0" width="36" height="36"></rect>
        <path d="M22.0608747,7.73013059 C21.7203926,7.38965214 21.1637173,7.38965214 20.8232352,7.73013059 L9.30811071,19.2460046 C8.96762854,19.5864831 8.62802165,20.254311 8.55449851,20.7304557 L7.51029484,27.4428702 C7.43677169,27.9190149 7.76500001,28.2472396 8.24114988,28.172842 L14.9510119,27.1286497 C15.4271617,27.0542521 16.0949969,26.7146489 16.4346038,26.3750457 L27.9532294,14.8582964 C28.2937116,14.517818 28.2937116,13.9602736 27.9532294,13.6197951 L22.0608747,7.73013059 Z" id="Stroke-1" stroke="#313131" stroke-width="1.80000007" stroke-linecap="round"></path>
        <path d="M22.0608747,7.73013059 C21.7203926,7.38965214 21.1637173,7.38965214 20.8232352,7.73013059 L9.30811071,19.2460046 C8.96762854,19.5864831 8.62802165,20.254311 8.55449851,20.7304557 L7.51029484,27.4428702 C7.43677169,27.9190149 7.76500001,28.2472396 8.24114988,28.172842 L14.9510119,27.1286497 C15.4271617,27.0542521 16.0949969,26.7146489 16.4346038,26.3750457 L27.9532294,14.8582964 C28.2937116,14.517818 28.2937116,13.9602736 27.9532294,13.6197951 L22.0608747,7.73013059 Z" id="Stroke-3" stroke="#313131" stroke-width="1.80000007" stroke-linecap="round"></path>
        <path d="M23.6785867,15.2404934 L20.4428694,12.004776" id="Stroke-5" stroke="#313131" stroke-width="1.80000007" stroke-linecap="round"></path>
        <path d="M9.44143041,20.4176411 L15.2657216,26.2419324" id="Stroke-7" stroke="#313131" stroke-width="1.80000007" stroke-linecap="round"></path>
        <path d="M8.19556626,28.1737064 C7.74870147,28.24267 7.44066048,27.9347968 7.50966166,27.4881754 L7.98774128,24.4168325 C8.05674246,23.9702111 8.3754622,23.8667657 8.69418194,24.1861328 L11.4977657,26.9898313 C11.8164854,27.3083775 11.7129836,27.6269236 11.2661188,27.6958872 L8.19556626,28.1737064 Z" id="Fill-9" fill="#313131"></path>
    </g>
</svg>