<?xml version="1.0" encoding="UTF-8"?>
<svg width="14px" height="12px" viewBox="0 0 14 12" version="1.1" xmlns="http://www.w3.org/2000/svg" xmlns:xlink="http://www.w3.org/1999/xlink">
    <!-- Generator: Sketch 49.3 (51167) - http://www.bohemiancoding.com/sketch -->
    <title>Combined Shape</title>
    <desc>Created with Sketch.</desc>
    <defs></defs>
    <g id="Symbols" stroke="none" stroke-width="1" fill="none" fill-rule="evenodd">
        <g id="ico/menu" transform="translate(-6.000000, -7.000000)" fill="#8C8C8C">
            <path d="M6,7.85714286 C6,7.38375593 6.37446618,7 6.85468808,7 L19.1453119,7 C19.6173431,7 20,7.38045556 20,7.85714286 C20,8.33052979 19.6255338,8.71428571 19.1453119,8.71428571 L6.85468808,8.71428571 C6.38265689,8.71428571 6,8.33383015 6,7.85714286 Z M6,13 C6,12.5266131 6.37446618,12.1428571 6.85468808,12.1428571 L19.1453119,12.1428571 C19.6173431,12.1428571 20,12.5233127 20,13 C20,13.4733869 19.6255338,13.8571429 19.1453119,13.8571429 L6.85468808,13.8571429 C6.38265689,13.8571429 6,13.4766873 6,13 Z M6,18.1428571 C6,17.6694702 6.37446618,17.2857143 6.85468808,17.2857143 L19.1453119,17.2857143 C19.6173431,17.2857143 20,17.6661698 20,18.1428571 C20,18.6162441 19.6255338,19 19.1453119,19 L6.85468808,19 C6.38265689,19 6,18.6195444 6,18.1428571 Z" id="Combined-Shape"></path>
        </g>
    </g>
</svg>