<?xml version="1.0" encoding="UTF-8"?>
<svg width="28px" height="28px" viewBox="0 0 28 28" version="1.1" xmlns="http://www.w3.org/2000/svg" xmlns:xlink="http://www.w3.org/1999/xlink">
    <!-- Generator: Sketch 50.2 (55047) - http://www.bohemiancoding.com/sketch -->
    <title>icon/help-g</title>
    <desc>Created with Sketch.</desc>
    <defs></defs>
    <g id="icon/help-g" stroke="none" stroke-width="1" fill="none" fill-rule="evenodd">
        <path d="M14,0 C6.3,0 0,6.3 0,14 C0,21.7 6.3,28 14,28 C21.7,28 28,21.7 28,14 C28,6.3 21.7,0 14,0 L14,0 Z" id="Shape" fill="#5A5A5A"></path>
        <path d="M15.8480583,23.36 L12.0246453,23.36 L12.0246453,19.8442553 L15.8480583,19.8442553 L15.8480583,23.36 Z M15.646826,16.3285106 L15.646826,17.3051064 L12.2258775,17.3051064 L12.2258775,16.1331915 C12.6283421,12.0314894 16.2505228,12.4221277 16.0492905,9.88297872 C16.2505228,8.51574468 15.4455937,7.73446809 14.0369679,7.73446809 C12.4271098,7.73446809 11.6221807,9.10170213 11.6221807,10.8595745 L8,10.8595745 C8,7.53914894 10.4147872,5 13.8357356,5 C18.4640777,5 19.8727035,7.73446809 19.8727035,9.49234043 C20.0739358,13.9846809 16.0492905,13.3987234 15.646826,16.3285106 Z" id="Combined-Shape" fill="#FFFFFF"></path>
    </g>
</svg>