<?xml version="1.0" encoding="UTF-8"?>
<svg width="28px" height="28px" viewBox="0 0 28 28" version="1.1" xmlns="http://www.w3.org/2000/svg" xmlns:xlink="http://www.w3.org/1999/xlink">
    <!-- Generator: Sketch 52.5 (67469) - http://www.bohemiancoding.com/sketch -->
    <title>ico/question</title>
    <desc>Created with Sketch.</desc>
    <g id="ico/question" stroke="none" stroke-width="1" fill="none" fill-rule="evenodd">
        <path d="M14.576,16.744 L12.08,16.744 L12.08,12.928 C14.648,12.808 16.112,11.848 16.112,9.928 L16.112,9.592 C16.112,8.128 15.128,7.264 13.64,7.264 C12.056,7.264 11.072,8.32 10.736,9.736 L8.456,8.824 C9.032,6.832 10.64,4.96 13.736,4.96 C16.88,4.96 18.896,6.832 18.896,9.664 C18.896,12.568 16.736,14.152 14.576,14.536 L14.576,16.744 Z M13.352,22.288 C12.128,22.288 11.6,21.616 11.6,20.704 L11.6,20.296 C11.6,19.384 12.128,18.712 13.352,18.712 C14.576,18.712 15.104,19.384 15.104,20.296 L15.104,20.704 C15.104,21.616 14.576,22.288 13.352,22.288 Z" id="?" fill="#5A5A5A"></path>
    </g>
</svg>