<?xml version="1.0" encoding="UTF-8"?>
<svg width="36px" height="36px" viewBox="0 0 36 36" version="1.1" xmlns="http://www.w3.org/2000/svg" xmlns:xlink="http://www.w3.org/1999/xlink">
    <!-- Generator: Sketch 50.2 (55047) - http://www.bohemiancoding.com/sketch -->
    <title>ico/menu/icon_menu_setting</title>
    <desc>Created with Sketch.</desc>
    <defs></defs>
    <g id="ico/menu/icon_menu_setting" stroke="none" stroke-width="1" fill="none" fill-rule="evenodd">
        <rect id="Rectangle-8" x="0" y="0" width="36" height="36"></rect>
        <g id="Group-3" transform="translate(6.000000, 6.000000)" stroke="#313131" stroke-width="1.80000007">
            <path d="M7.29310679,23.0151116 C8.14244329,23.3764087 9.02420673,23.6348365 9.92841959,23.7853769 L12.3005753,20.0356651 L14.9296521,23.5319671 C15.8301234,23.2860844 16.6944262,22.9323143 17.5138301,22.473166 L16.9413699,18.1200378 L21.2978051,19.1211318 C21.835344,18.3847381 22.2843325,17.5906372 22.6372873,16.7476107 L19.2711211,13.6502408 L23.5365114,11.4510957 C23.4853766,10.5942696 23.3419497,9.75124303 23.1099724,8.93079755 L18.1985375,8.71878641 L20.2090081,3.92909094 C19.6565028,3.36330973 19.0516156,2.8539812 18.398088,2.40988686 L14.2274841,5.6352161 L12.6310807,0.42149835 C11.8628115,0.368809191 11.1319581,0.393899266 10.38988,0.486732547 L9.21502682,5.84095472 L4.65904118,2.87781677 C4.06413147,3.34449218 3.51661499,3.86762026 3.01898612,4.44218299 L5.5046361,9.23940548 L0.367459843,9.88422043 C0.219044215,10.6369227 0.145459995,11.40217 0.145459995,12.1686718 C0.145459995,12.2100705 0.145459995,12.2502146 0.146707185,12.2903587 L4.83489499,14.2411121 L1.56226801,17.7850853 C1.97758234,18.5540961 2.47521121,19.2716723 3.0464243,19.9265233 L7.5200954,18.503916 L7.29310679,23.0151116 Z" id="Stroke-1"></path>
        </g>
        <circle id="Oval-3" stroke="#313131" stroke-width="1.8" cx="18" cy="18.5776965" r="3"></circle>
    </g>
</svg>