<svg id="レイヤー_2" data-name="レイヤー 2" xmlns="http://www.w3.org/2000/svg" viewBox="0 0 143 96.79" width="143px" height="97px"><defs><style>.cls-1{fill:#8c8c8c;}.cls-2{fill:#595a5a;}</style></defs><path class="cls-1" d="M63.67,61.71a18,18,0,0,0-2.76-.15H54.26c-1.28,0-1.86,0-2.71.06a16.93,16.93,0,0,0,.17-2.81V47.27a18.77,18.77,0,0,0-.17-2.76c.85.05,1.41.07,2.71.07H60.7a22,22,0,0,0,2.75-.15v2.81a20.31,20.31,0,0,0-2.75-.14H54.56v4.39h5.18a21.53,21.53,0,0,0,2.77-.15v2.8A16.43,16.43,0,0,0,59.74,54H54.53v5h6.41a19.91,19.91,0,0,0,2.73-.15Z"/><path class="cls-1" d="M74.78,53.41a4.08,4.08,0,0,0-.66-1.3,2.7,2.7,0,0,0-2.2-1c-2.09,0-3.39,1.64-3.39,4.28s1.32,4.31,3.47,4.31a2.7,2.7,0,0,0,2.88-2.26l2.65.54a5.86,5.86,0,0,1-.9,1.81A5.52,5.52,0,0,1,71.94,62c-3.75,0-6.18-2.53-6.18-6.48a6.93,6.93,0,0,1,1.81-4.93,5.86,5.86,0,0,1,4.29-1.62,5.49,5.49,0,0,1,4.77,2.31,6.78,6.78,0,0,1,.75,1.55Z"/><path class="cls-1" d="M79.54,55.46c0-4,2.47-6.51,6.36-6.51s6.31,2.52,6.31,6.46S89.72,62,85.92,62,79.54,59.45,79.54,55.46Zm2.75,0c0,2.62,1.37,4.24,3.59,4.24s3.58-1.6,3.58-4.2-1.3-4.33-3.56-4.33S82.29,52.79,82.29,55.46Z"/><path class="cls-2" d="M90,97H52.78a6.49,6.49,0,0,1-6.49-6.48V22.43a6.5,6.5,0,0,1,6.49-6.49H90a6.49,6.49,0,0,1,6.48,6.49V90.51A6.49,6.49,0,0,1,90,97ZM52.78,17.71a4.73,4.73,0,0,0-4.72,4.72V90.51a4.72,4.72,0,0,0,4.72,4.71H90a4.72,4.72,0,0,0,4.72-4.71V22.43A4.73,4.73,0,0,0,90,17.71Z"/><rect class="cls-2" x="68.13" y="87.8" width="9.03" height="1.77"/><rect class="cls-2" x="47.17" y="79.54" width="48.47" height="1.77"/><rect class="cls-2" x="47.17" y="25.16" width="48.47" height="1.77"/><rect class="cls-2" x="91.32" y="12.33" width="8.05" height="2.66" transform="translate(36.77 90.12) rotate(-60.7)"/><path class="cls-2" d="M94.76,14.14S87.27,9.58,91.2-.21c0,0,8.62,2.51,7.74,9.6a9.38,9.38,0,0,1,11.76.35S105.51,19.64,94.76,14.14Z"/><path class="cls-2" d="M18.82,61.2A11.35,11.35,0,1,1,30.17,49.85,11.36,11.36,0,0,1,18.82,61.2Zm0-20.93a9.58,9.58,0,1,0,9.58,9.58A9.59,9.59,0,0,0,18.82,40.27Z"/><path class="cls-2" d="M37.65,79.24H35.88a17.06,17.06,0,1,0-34.11,0H0a18.83,18.83,0,1,1,37.65,0Z"/><path class="cls-2" d="M124.18,61.2a11.35,11.35,0,1,1,11.34-11.35A11.36,11.36,0,0,1,124.18,61.2Zm0-20.93a9.58,9.58,0,1,0,9.58,9.58A9.59,9.59,0,0,0,124.18,40.27Z"/><path class="cls-2" d="M143,79.24h-1.77a17.06,17.06,0,1,0-34.11,0h-1.77a18.83,18.83,0,1,1,37.65,0Z"/></svg>