<svg width="143" height="97" viewBox="0 0 143 97" fill="none" xmlns="http://www.w3.org/2000/svg">
<g clip-path="url(#clip0_3040_64311)">
<path d="M1.1498 22.5663C0.790923 19.2721 3.17049 16.3106 6.46471 15.9518L48.2177 11.4032C51.5119 11.0443 54.4733 13.4239 54.8322 16.7181L61.1135 74.377C61.4724 77.6712 59.0928 80.6326 55.7986 80.9915L14.0457 85.5401C10.7514 85.8989 7.79002 83.5194 7.43115 80.2251L1.1498 22.5663Z" fill="white"/>
<path fill-rule="evenodd" clip-rule="evenodd" d="M0.255077 22.6641C-0.157626 18.8758 2.57888 15.4701 6.36723 15.0574L48.1202 10.5089C51.9086 10.0962 55.3142 12.8327 55.7269 16.621L62.0082 74.2799C62.4209 78.0682 59.6844 81.4739 55.8961 81.8866L14.1431 86.4351C10.3548 86.8478 6.94913 84.1113 6.53643 80.323L0.255077 22.6641ZM6.56217 16.8468C3.76208 17.1519 1.73945 19.6691 2.04449 22.4692L8.32584 80.128C8.63088 82.9281 11.1481 84.9507 13.9482 84.6457L55.7011 80.0971C58.5012 79.7921 60.5239 77.2749 60.2188 74.4748L53.9375 16.8159C53.6324 14.0159 51.1152 11.9932 48.3151 12.2983L6.56217 16.8468Z" fill="#595A5A"/>
<path d="M31.8577 34.8045C32.5004 40.7045 28.2386 46.0085 22.3386 46.6512C16.4386 47.2939 11.1347 43.0321 10.4919 37.1321C9.84917 31.2321 14.111 25.9282 20.011 25.2854C25.911 24.6427 31.215 28.9045 31.8577 34.8045Z" fill="#8C8C8C"/>
<path fill-rule="evenodd" clip-rule="evenodd" d="M15.8883 30.2452C16.1996 29.8578 16.7661 29.796 17.1536 30.1074L20.8617 33.0869L23.8412 29.3788C24.1525 28.9914 24.719 28.9296 25.1065 29.241C25.494 29.5523 25.5557 30.1188 25.2444 30.5063L21.1373 35.6175L16.0261 31.5105C15.6386 31.1992 15.5769 30.6327 15.8883 30.2452Z" fill="white"/>
<path fill-rule="evenodd" clip-rule="evenodd" d="M20.9025 33.465C21.3967 33.4112 21.8409 33.7681 21.8947 34.2623L22.8495 43.0268C22.9033 43.521 22.5464 43.9652 22.0523 44.019C21.5581 44.0728 21.1139 43.7159 21.0601 43.2218L20.1053 34.4572C20.0515 33.9631 20.4084 33.5189 20.9025 33.465Z" fill="white"/>
<path fill-rule="evenodd" clip-rule="evenodd" d="M25.8748 36.1838C25.9286 36.6779 25.5717 37.1221 25.0776 37.1759L17.6217 37.9882C17.1276 38.042 16.6833 37.6851 16.6295 37.191C16.5757 36.6968 16.9326 36.2526 17.4268 36.1988L24.8826 35.3865C25.3768 35.3327 25.821 35.6896 25.8748 36.1838Z" fill="white"/>
<path fill-rule="evenodd" clip-rule="evenodd" d="M26.2342 39.4767C26.288 39.9709 25.9311 40.4151 25.437 40.4689L17.9811 41.2812C17.4869 41.335 17.0427 40.9781 16.9889 40.4839C16.9351 39.9898 17.292 39.5456 17.7861 39.4917L25.242 38.6795C25.7361 38.6257 26.1804 38.9826 26.2342 39.4767Z" fill="white"/>
<path fill-rule="evenodd" clip-rule="evenodd" d="M49.4794 29.7665L35.4996 31.2894L35.3047 29.5L49.2845 27.977L49.4794 29.7665Z" fill="#8C8C8C"/>
<path fill-rule="evenodd" clip-rule="evenodd" d="M50.3466 37.7196L36.3668 39.2425L36.1719 37.4531L50.1517 35.9302L50.3466 37.7196Z" fill="#8C8C8C"/>
<path fill-rule="evenodd" clip-rule="evenodd" d="M52.1214 52.3625L11.6285 56.7738L11.4336 54.9844L51.9264 50.5731L52.1214 52.3625Z" fill="#8C8C8C"/>
<path fill-rule="evenodd" clip-rule="evenodd" d="M52.9886 60.3156L12.4957 64.7269L12.3008 62.9375L52.7936 58.5262L52.9886 60.3156Z" fill="#8C8C8C"/>
<path fill-rule="evenodd" clip-rule="evenodd" d="M53.8518 68.2688L13.359 72.68L13.1641 70.8906L53.6569 66.4793L53.8518 68.2688Z" fill="#8C8C8C"/>
<path d="M57.5364 10.9321C58.1592 7.67748 61.3025 5.54393 64.5571 6.16672L105.809 14.0603C109.063 14.6831 111.197 17.8264 110.574 21.081L99.6735 78.0475C99.0507 81.3021 95.9074 83.4357 92.6527 82.8129L51.4012 74.9193C48.1465 74.2965 46.013 71.1532 46.6357 67.8986L57.5364 10.9321Z" fill="white"/>
<path fill-rule="evenodd" clip-rule="evenodd" d="M56.6524 10.7614C57.3686 7.01856 60.9834 4.56497 64.7263 5.28118L105.978 13.1748C109.721 13.891 112.174 17.5057 111.458 21.2486L100.557 78.2151C99.8412 81.9579 96.2264 84.4115 92.4836 83.6953L51.232 75.8017C47.4891 75.0855 45.0355 71.4707 45.7518 67.7279L56.6524 10.7614ZM64.388 7.0491C61.6215 6.51973 58.9497 8.33325 58.4203 11.0997L47.5197 68.0662C46.9903 70.8326 48.8038 73.5044 51.5703 74.0338L92.8219 81.9274C95.5883 82.4567 98.2601 80.6432 98.7895 77.8768L109.69 20.9103C110.22 18.1439 108.406 15.4721 105.64 14.9427L64.388 7.0491Z" fill="#595A5A"/>
<path d="M83.3122 31.6369C82.1968 37.466 76.5671 41.2872 70.738 40.1718C64.9088 39.0564 61.0876 33.4267 62.203 27.5976C63.3184 21.7684 68.9481 17.9472 74.7773 19.0626C80.6064 20.178 84.4276 25.8077 83.3122 31.6369Z" fill="#8C8C8C"/>
<path fill-rule="evenodd" clip-rule="evenodd" d="M69.3812 22.5936C69.7925 22.3145 70.3522 22.4216 70.6314 22.8328L73.3029 26.7686L77.2387 24.0971C77.6499 23.818 78.2096 23.9251 78.4888 24.3364C78.7679 24.7476 78.6608 25.3073 78.2496 25.5865L72.8244 29.2689L69.142 23.8437C68.8629 23.4325 68.97 22.8728 69.3812 22.5936Z" fill="white"/>
<path fill-rule="evenodd" clip-rule="evenodd" d="M73.2316 27.1418C73.7198 27.2352 74.0399 27.7067 73.9464 28.1949L72.2895 36.8542C72.196 37.3424 71.7245 37.6624 71.2363 37.569C70.7481 37.4756 70.4281 37.0041 70.5215 36.5159L72.1785 27.8566C72.2719 27.3684 72.7434 27.0484 73.2316 27.1418Z" fill="white"/>
<path fill-rule="evenodd" clip-rule="evenodd" d="M77.1902 31.2004C77.0968 31.6886 76.6253 32.0086 76.1371 31.9152L68.7708 30.5056C68.2826 30.4122 67.9625 29.9407 68.056 29.4525C68.1494 28.9643 68.6209 28.6443 69.1091 28.7377L76.4754 30.1473C76.9636 30.2407 77.2836 30.7122 77.1902 31.2004Z" fill="white"/>
<path fill-rule="evenodd" clip-rule="evenodd" d="M76.5652 34.4504C76.4718 34.9386 76.0003 35.2586 75.5121 35.1652L68.1458 33.7556C67.6576 33.6622 67.3375 33.1907 67.431 32.7025C67.5244 32.2143 67.9959 31.8943 68.4841 31.9877L75.8504 33.3973C76.3386 33.4907 76.6586 33.9622 76.5652 34.4504Z" fill="white"/>
<path fill-rule="evenodd" clip-rule="evenodd" d="M101.638 31.9851L87.8258 29.3421L88.1641 27.5742L101.976 30.2172L101.638 31.9851Z" fill="#8C8C8C"/>
<path fill-rule="evenodd" clip-rule="evenodd" d="M100.134 39.8445L86.3219 37.2015L86.6602 35.4336L100.472 38.0765L100.134 39.8445Z" fill="#8C8C8C"/>
<path fill-rule="evenodd" clip-rule="evenodd" d="M97.5355 54.3608L57.5289 46.7054L57.8672 44.9375L97.8738 52.5929L97.5355 54.3608Z" fill="#8C8C8C"/>
<path fill-rule="evenodd" clip-rule="evenodd" d="M96.0316 62.2162L56.025 54.5609L56.3633 52.793L96.3699 60.4483L96.0316 62.2162Z" fill="#8C8C8C"/>
<path fill-rule="evenodd" clip-rule="evenodd" d="M94.5316 70.0756L54.525 62.4203L54.8633 60.6523L94.8699 68.3077L94.5316 70.0756Z" fill="#8C8C8C"/>
<path d="M118.189 69.0168C117.593 68.4207 117.593 67.4543 118.189 66.8582C118.785 66.2621 119.751 66.2621 120.347 66.8582L126.958 73.4691C127.554 74.0652 127.554 75.0316 126.958 75.6277C126.362 76.2238 125.396 76.2238 124.8 75.6277L118.189 69.0168Z" fill="white"/>
<path fill-rule="evenodd" clip-rule="evenodd" d="M117.556 69.6532C116.608 68.7056 116.608 67.1694 117.556 66.2218C118.503 65.2742 120.039 65.2742 120.987 66.2218L127.598 72.8327C128.545 73.7803 128.545 75.3166 127.598 76.2641C126.65 77.2117 125.114 77.2117 124.166 76.2641L117.556 69.6532ZM118.828 67.4946C118.584 67.7392 118.584 68.1358 118.828 68.3804L125.439 74.9913C125.684 75.2359 126.08 75.2359 126.325 74.9913C126.57 74.7467 126.57 74.3501 126.325 74.1055L119.714 67.4946C119.47 67.25 119.073 67.25 118.828 67.4946Z" fill="#595A5A"/>
<path d="M125.434 53.0098C125.434 63.2756 117.112 71.5977 106.846 71.5977C96.5799 71.5977 88.2578 63.2756 88.2578 53.0098C88.2578 42.744 96.5799 34.4219 106.846 34.4219C117.112 34.4219 125.434 42.744 125.434 53.0098Z" fill="white"/>
<path fill-rule="evenodd" clip-rule="evenodd" d="M106.847 35.3234C97.0785 35.3234 89.1594 43.2426 89.1594 53.0113C89.1594 62.7801 97.0785 70.6992 106.847 70.6992C116.616 70.6992 124.535 62.7801 124.535 53.0113C124.535 43.2426 116.616 35.3234 106.847 35.3234ZM87.3594 53.0113C87.3594 42.2485 96.0844 33.5234 106.847 33.5234C117.61 33.5234 126.335 42.2485 126.335 53.0113C126.335 63.7742 117.61 72.4992 106.847 72.4992C96.0844 72.4992 87.3594 63.7742 87.3594 53.0113Z" fill="#595A5A"/>
<path d="M123.605 76.1914C122.546 75.1321 122.546 73.4147 123.605 72.3555C124.665 71.2962 126.382 71.2962 127.441 72.3555L141.297 86.2109C142.356 87.2702 142.356 88.9876 141.297 90.0469C140.238 91.1061 138.52 91.1061 137.461 90.0469L123.605 76.1914Z" fill="#595A5A"/>
<path fill-rule="evenodd" clip-rule="evenodd" d="M122.972 76.8278C121.562 75.4171 121.562 73.1298 122.972 71.7191C124.383 70.3083 126.67 70.3083 128.081 71.7191L141.937 85.5745C143.347 86.9853 143.347 89.2725 141.937 90.6833C140.526 92.094 138.239 92.094 136.828 90.6833L122.972 76.8278ZM124.245 72.9919C123.537 73.6997 123.537 74.8472 124.245 75.555L138.101 89.4105C138.808 90.1183 139.956 90.1183 140.664 89.4105C141.372 88.7027 141.372 87.5551 140.664 86.8473L126.808 72.9919C126.1 72.2841 124.953 72.2841 124.245 72.9919Z" fill="#595A5A"/>
<path d="M96.0941 44.8101C96.4046 43.1826 97.9756 42.115 99.6031 42.4254L112.521 44.8895C113.063 44.993 113.419 45.5167 113.316 46.0592L113.128 47.0415C113.025 47.584 112.501 47.9398 111.959 47.8364L96.0941 44.8101Z" fill="#8C8C8C"/>
<path d="M116.315 44.0828C117.591 44.3219 118.431 45.5498 118.192 46.8256L115.014 63.7888C114.835 64.7456 113.914 65.3759 112.957 65.1967C112.638 65.1369 112.428 64.8299 112.488 64.511L116.315 44.0828Z" fill="#595A5A"/>
<path d="M93.5626 49.826C93.6661 49.2835 94.1898 48.9276 94.7323 49.0311L111.215 52.1752C111.757 52.2787 112.113 52.8024 112.01 53.3449L111.822 54.3271C111.719 54.8696 111.195 55.2255 110.652 55.1221L94.1702 51.978C93.6277 51.8745 93.2718 51.3508 93.3752 50.8083L93.5626 49.826Z" fill="#8C8C8C"/>
<path d="M94.2947 56.9171C94.339 56.6846 94.5635 56.532 94.796 56.5764L109.668 59.4132C110.21 59.5167 110.566 60.0404 110.462 60.5829L110.275 61.5652C110.172 62.1077 109.648 62.4636 109.105 62.3601L96.3388 59.9248C94.9437 59.6587 94.0286 58.3121 94.2947 56.9171Z" fill="#8C8C8C"/>
<path fill-rule="evenodd" clip-rule="evenodd" d="M106.851 40.4367C99.9064 40.4367 94.2766 46.0666 94.2766 53.0113C94.2766 59.9561 99.9064 65.5859 106.851 65.5859C113.796 65.5859 119.426 59.9561 119.426 53.0113C119.426 46.0666 113.796 40.4367 106.851 40.4367ZM92.4766 53.0113C92.4766 45.0725 98.9123 38.6367 106.851 38.6367C114.79 38.6367 121.226 45.0725 121.226 53.0113C121.226 60.9502 114.79 67.3859 106.851 67.3859C98.9123 67.3859 92.4766 60.9502 92.4766 53.0113Z" fill="#595A5A"/>
</g>
<defs>
<clipPath id="clip0_3040_64311">
<rect width="143" height="97" fill="white"/>
</clipPath>
</defs>
</svg>
