<svg id="レイヤー_2" data-name="レイヤー 2" xmlns="http://www.w3.org/2000/svg" viewBox="0 0 143 96.55" width="143px" height="97px"><defs><style>.cls-1{fill:#8c8c8c;}.cls-2{fill:#595a5a;}</style></defs><path class="cls-1" d="M45.05,74a34.66,34.66,0,0,0,.35-5.53V45h-2a37.85,37.85,0,0,0-4.38.26V39.83a23.78,23.78,0,0,0,4.25.26h3.92a32.64,32.64,0,0,0,4.34-.21,65.35,65.35,0,0,0-.34,7V68.44A36.24,36.24,0,0,0,51.48,74Z"/><path class="cls-1" d="M68.88,71.21a11.89,11.89,0,0,1-2.81-4.3,28.43,28.43,0,0,1-1.66-9.79c0-4.52,1-9.2,2.59-11.8a12.1,12.1,0,0,1,10.86-5.91,12.37,12.37,0,0,1,9,3.44,11.89,11.89,0,0,1,2.81,4.3A28.62,28.62,0,0,1,91.31,57c0,5.24-1.14,9.83-3.15,12.6a12.07,12.07,0,0,1-10.34,5A12.27,12.27,0,0,1,68.88,71.21Zm13.58-3.28c1.91-2,3-6,3-10.94s-1.07-8.81-3-10.9a6.16,6.16,0,0,0-4.64-1.79,5.71,5.71,0,0,0-4.77,2.17c-1.87,2.22-2.81,5.71-2.81,10.35,0,4.47.81,8.17,2.17,10.13a6.77,6.77,0,0,0,10,1Z"/><path class="cls-2" d="M109.2,84.64H21.83V29.72H109.2ZM23.59,82.89h83.85V31.48H23.59Z"/><rect class="cls-2" x="56.21" y="89.48" width="20.5" height="1.76"/><path class="cls-2" d="M138.13,96.58H112.4a5,5,0,0,1-5-5V42.71a5,5,0,0,1,5-5h25.73a5,5,0,0,1,5,5V91.62A5,5,0,0,1,138.13,96.58ZM112.4,39.51a3.21,3.21,0,0,0-3.2,3.2V91.62a3.21,3.21,0,0,0,3.2,3.2h25.73a3.21,3.21,0,0,0,3.2-3.2V42.71a3.21,3.21,0,0,0-3.2-3.2Z"/><path class="cls-1" d="M119.94,64.46c0-.41,0-.69,0-1.08a12.16,12.16,0,0,0,1.29.06h4V61h-3.88a17.07,17.07,0,0,1-3.06,3.65A8.06,8.06,0,0,0,116.91,63a11.54,11.54,0,0,0,3.63-4.66A5.88,5.88,0,0,0,121,57l2.21.45c-.12.22-.15.27-.28.55,0,.06-.21.45-.54,1.17h8.68a14.07,14.07,0,0,0,1.9-.09v2a13,13,0,0,0-1.9-.09h-3.78v2.41h3a14.16,14.16,0,0,0,1.9-.09v2c-.55,0-1-.07-1.85-.07h-3v3h4.3a14.37,14.37,0,0,0,2-.11v2.12a16.75,16.75,0,0,0-2-.11h-4.3v2.31a11.52,11.52,0,0,0,.11,2h-2.26a14.18,14.18,0,0,0,.11-2V70.14H119a16.82,16.82,0,0,0-2,.11V68.13a14.68,14.68,0,0,0,2,.11h1Zm5.29,3.78v-3h-3.34v3Z"/><rect class="cls-2" x="122.97" y="89.48" width="6.32" height="1.76"/><rect class="cls-2" x="108.32" y="82.89" width="33.89" height="1.76"/><rect class="cls-2" x="108.32" y="44.39" width="33.89" height="1.76"/><path class="cls-2" d="M109.2,84.64H13V28.47a8.55,8.55,0,0,1,8.53-8.54h89.14a8.55,8.55,0,0,1,8.53,8.54v11H112.4a3.21,3.21,0,0,0-3.2,3.2ZM14.79,82.89h92.65V42.71a5,5,0,0,1,5-5h5.09V28.47a6.79,6.79,0,0,0-6.78-6.78H21.57a6.79,6.79,0,0,0-6.78,6.78Z"/><path class="cls-2" d="M112.4,96.58H8.68A8.6,8.6,0,0,1,.09,88v-5.1H109.2v8.73a3.21,3.21,0,0,0,3.2,3.2ZM1.85,84.64V88a6.84,6.84,0,0,0,6.83,6.83h99.94a4.89,4.89,0,0,1-1.18-3.2v-7Z"/><rect class="cls-2" x="108.86" y="15.29" width="9.63" height="2.64" transform="translate(43.56 107.61) rotate(-60.7)"/><path class="cls-2" d="M113.84,16.3S104,12.38,107.29.07c0,0,9.84,1.18,10.4,9.71,0,0,4.68-5.64,12.83-1.16C130.52,8.62,128.13,19.48,113.84,16.3Z"/></svg>