<?xml version="1.0" encoding="UTF-8"?>
<svg width="156px" height="18px" viewBox="0 0 156 18" version="1.1" xmlns="http://www.w3.org/2000/svg" xmlns:xlink="http://www.w3.org/1999/xlink">
    <!-- Generator: Sketch 49.3 (51167) - http://www.bohemiancoding.com/sketch -->
    <title>logo</title>
    <desc>Created with Sketch.</desc>
    <defs></defs>
    <g id="-" stroke="none" stroke-width="1" fill="none" fill-rule="evenodd">
        <g id="footer/copyright-sp" transform="translate(-82.000000, -13.000000)">
            <g id="logo" transform="translate(82.400000, 13.000000)">
                <path d="M36.9447968,14.3319292 L36.9447968,6.92548533 L33.7946642,11.7270804 L33.7279174,11.7270804 L30.5481605,6.97453137 L30.5481605,14.3319292 L28.1779707,14.3319292 L28.1779707,2.96209814 L30.8276861,2.96209814 L33.7946642,7.73025834 L36.7568484,2.96209814 L39.3131428,2.96209814 L39.3131428,14.3319292 L36.9447968,14.3319292 Z M46.0354005,14.4623498 C43.0042569,14.4623498 41.2084834,12.7720438 41.2084834,9.45633479 L41.2084834,2.96209814 L43.5785504,2.96209814 L43.5785504,9.39511943 C43.5785504,11.2297364 44.5575044,12.1764848 46.0657624,12.1764848 C47.5752495,12.1764848 48.5524827,11.2624337 48.5524827,9.47637114 L48.5524827,2.96209814 L50.9207058,2.96209814 L50.9207058,9.37987705 C50.9207058,12.7883925 49.0606439,14.4623498 46.0354005,14.4623498 Z M55.1856216,5.32860033 L55.1856216,7.69805267 L60.1617666,7.69805267 L60.1617666,10.0665216 L55.1856216,10.0665216 L55.1856216,14.3319292 L52.8172756,14.3319292 L52.8172756,2.96209814 L61.5858227,2.96209814 L61.5858227,5.32860033 L55.1856216,5.32860033 Z M67.9425091,14.4785756 C64.4333202,14.4785756 62.0577218,12.0107853 62.0577218,8.6818007 L62.0577218,8.64848872 C62.0577218,5.45287489 64.5151866,2.82122906 67.9267751,2.82122906 C69.9596658,2.82122906 71.1654117,3.36589825 72.338952,4.37214108 L70.7638242,6.24855163 C69.8990651,5.53166815 69.1638662,5.10721708 67.8624866,5.10721708 C66.0527,5.10721708 64.6637997,6.70397916 64.6637997,8.61702059 L64.6637997,8.64848872 C64.6637997,10.7148144 66.0447101,12.2261454 68.0450264,12.2261454 C68.9469081,12.2261454 69.6382237,11.9992306 70.3489611,11.5462616 L70.3489611,10.0665216 L67.7430061,10.0665216 L67.7430061,7.69805267 L72.719151,7.69805267 L72.719151,12.6895629 C71.5329497,13.6733109 70.0063764,14.4785756 67.9425091,14.4785756 Z" id="Fill-1" fill="#595857"></path>
                <path d="M15.4910014,0.122860947 C14.2507143,0.122860947 13.0741011,0.38493152 12.0109451,0.86223923 C10.9471746,0.38493152 9.77240518,0.122860947 8.53211808,0.122860947 C3.82037927,0.122860947 7.37534447e-05,3.9389871 7.37534447e-05,8.64888208 C7.37534447e-05,13.3584083 3.82037927,17.1773617 8.53211808,17.1773617 C9.77240518,17.1773617 10.9471746,16.9098825 12.0109451,16.4368771 C13.0741011,16.9098825 14.2507143,17.1773617 15.4910014,17.1773617 C20.1991755,17.1773617 24.0182518,13.3584083 24.0182518,8.64888208 C24.0182518,3.9389871 20.1991755,0.122860947 15.4910014,0.122860947 M12.0109451,16.3574692 C7.7521754,16.3574692 4.30186634,12.9071601 4.30186634,8.64888208 C4.30186634,4.39023526 7.7521754,0.938082355 12.0109451,0.938082355 C16.2667647,0.938082355 19.7206386,4.39023526 19.7206386,8.64888208 C19.7206386,12.9071601 16.2667647,16.3574692 12.0109451,16.3574692 M15.5583629,8.64888208 C15.5583629,10.6078965 13.9698366,12.1975291 12.0109451,12.1975291 C10.0526683,12.1975291 8.46168354,10.6078965 8.46168354,8.64888208 C8.46168354,6.68937597 10.0526683,5.10158723 12.0109451,5.10158723 C13.9698366,5.10158723 15.5583629,6.68937597 15.5583629,8.64888208" id="Fill-3" fill="#E60000"></path>
                <path d="M97.0839948,5.33925771 L95.3227625,5.33925771 L95.3227625,4.58611211 L97.0839948,4.58611211 L97.0839948,4.03714064 L98.3037538,4.03714064 L98.3037538,4.58611211 L101.966473,4.58611211 L101.966473,4.03714064 L103.186969,4.03714064 L103.186969,4.58611211 L104.971803,4.58611211 L104.971803,5.33925771 L103.186969,5.33925771 L103.186969,5.76887152 L101.966473,5.76887152 L101.966473,5.33925771 L98.3037538,5.33925771 L98.3037538,5.76887152 L97.0839948,5.76887152 L97.0839948,5.33925771 Z M95.3118224,9.39803269 L95.3085035,10.2924161 C96.8662992,10.0670994 98.4146299,9.31813313 99.1477391,8.26395056 L100.818132,8.26395056 L100.818132,9.07437799 C100.818132,9.7140662 101.40484,9.69218601 102.15565,9.69218601 L104.971803,9.69218601 L104.971803,8.89528004 L101.946314,8.89528004 L101.952214,8.26395056 L104.971803,8.26395056 L104.971803,7.49384167 L100.744993,7.49384167 L100.744993,6.92053156 L104.338015,6.92053156 L104.338015,6.1648046 L100.744993,6.1648046 L100.744993,5.6562746 L99.5259713,5.6562746 L99.5259713,6.1648046 L95.9389726,6.1648046 L95.9389726,6.92053156 L99.5259713,6.92053156 L99.5259713,7.49384167 L95.3118224,7.49384167 L95.3118224,8.26395056 L97.7892006,8.26395056 C97.202492,8.87671876 96.1851861,9.25175503 95.3118224,9.39803269 Z M104.969221,12.5142387 L104.969221,13.4061636 C103.050034,13.2683676 101.483019,12.9909317 100.181762,12.5604575 C98.5323895,13.0338317 96.7669779,13.3027859 95.3185832,13.4137848 L95.3177227,12.5175576 C96.4080445,12.4789599 97.6236242,12.3100645 98.8333036,12.0242699 C98.3263716,11.7846942 97.8548412,11.5138961 97.4042077,11.2121216 C96.8696181,11.3969969 96.323228,11.5290156 95.8069539,11.5896163 L95.8069539,10.7077709 C97.3050093,10.4975736 98.5777479,9.75856411 99.2116587,9.09613526 L100.525576,9.09613526 C100.254041,9.51652989 99.919446,9.79728467 99.4680749,10.0814813 L103.947859,10.0814813 L103.947859,10.7724281 C103.303131,11.297061 102.495162,11.7282728 101.606679,12.0805684 C102.528843,12.2880614 103.651985,12.4395018 104.969221,12.5142387 Z M102.256447,10.7943083 L98.4071316,10.7943083 C98.4020918,10.7976272 98.3970519,10.7993481 98.3920121,10.8018066 C98.889602,11.1162421 99.4613142,11.4070765 100.153121,11.6584528 C100.882789,11.4239169 101.594878,11.1355409 102.256447,10.7943083 Z" id="Fill-6" fill="#060101"></path>
                <path d="M114.279684,9.77755563 C114.32074,12.0254377 113.011985,13.4142151 110.317649,13.4142151 C107.622452,13.4142151 106.314312,12.0254377 106.355614,9.77755563 L106.355614,4.56884152 L107.730132,4.56884152 L107.730132,10.0675296 C107.772172,11.565585 108.750757,12.3751519 110.317649,12.3751519 C111.884541,12.3751519 112.854645,11.565585 112.895824,10.0675296 L112.895824,4.56884152 L114.279684,4.56884152 L114.279684,9.77755563 Z" id="Fill-8" fill="#060101"></path>
                <polygon id="Fill-10" fill="#060101" points="116.657335 13.2285039 116.657335 4.57316838 123.528698 4.57316838 123.528698 5.61137104 118.033329 5.61137104 118.033329 8.35450749 122.985627 8.35450749 122.985627 9.39357061 118.033329 9.39357061 118.033329 13.2285039"></polygon>
                <path d="M127.490721,13.414928 C125.125079,13.414928 123.980917,12.374144 123.947359,10.2617224 L125.419232,10.2617224 C125.458813,12.0883494 126.592035,12.4029078 127.5319,12.4029078 C128.269926,12.4029078 129.603388,12.042991 129.617524,10.4205382 L129.619245,4.57127538 L131.013062,4.57127538 L131.013062,10.425578 C130.948282,12.6835397 129.336892,13.414928 127.490721,13.414928" id="Fill-12" fill="#060101"></path>
                <path d="M134.571482,11.5270365 L133.666035,11.5237176 L133.490379,9.36495427 L134.291587,9.36667518 L134.571482,11.5270365 Z M137.169938,11.3430217 L137.478351,9.35241619 L136.583107,9.35241619 L136.381391,11.3362609 L137.169938,11.3430217 Z M137.473311,11.7271542 L137.469132,12.5997804 C136.578067,12.8359143 134.647079,13.2790496 133.24896,13.4109453 L133.24896,12.4342039 C133.723317,12.4013836 134.331045,12.3223445 134.954754,12.2240066 L134.957335,8.77566425 L133.260023,8.77566425 L133.260023,7.99559865 L134.957335,7.99559865 L134.957335,6.89937661 L134.079669,6.89937661 L134.072908,6.55630017 C133.82227,6.77731466 133.518897,6.99685408 133.252524,7.11879311 L133.252524,5.88379168 C133.838372,5.48699815 134.448682,4.62703298 134.747138,4.02606533 L136.132473,4.03098223 C136.483048,4.64977363 136.95126,5.22554219 137.464952,5.5936948 L137.464092,6.79169659 C137.312897,6.70589674 137.057219,6.5158587 136.890782,6.36712259 L136.890782,6.89937661 L135.985335,6.89937661 L135.985335,7.99559865 L137.469992,7.99559865 L137.469992,8.77566425 L135.985335,8.77566425 L135.987917,12.0473671 C136.567004,11.9398099 137.069019,11.8264755 137.473311,11.7271542 Z M136.636086,6.16454646 C136.102234,5.68453446 135.672621,5.11454325 135.475207,4.62703298 C135.291807,5.06918488 134.920335,5.65589354 134.461343,6.16454646 L136.636086,6.16454646 Z M142.988102,12.1307084 L142.987241,13.4311046 C141.080592,12.3527063 139.975151,10.0751999 139.651496,8.68224322 L139.053724,8.68224322 L139.055568,12.2273255 C139.768272,12.10133 140.112947,12.0238889 140.851096,11.8096351 L140.851096,12.7628984 C140.04829,13.0302546 139.163125,13.2479502 137.939064,13.4135267 L137.940785,4.17467852 L142.651786,4.17467852 L142.651786,8.68224322 L140.751897,8.68224322 C140.872976,9.10435877 141.042855,9.55069003 141.283168,10.0030445 C141.481688,9.72978798 141.71438,9.39273474 141.813701,9.19765687 L142.94594,9.19593596 C142.696407,9.70618688 142.211232,10.2719987 141.753223,10.7604924 C142.075895,11.2068236 142.477728,11.703676 142.988102,12.1307084 Z M139.054585,6.00573071 L141.582484,6.00573071 L141.582484,4.91712987 L139.054585,4.91712987 L139.054585,6.00573071 Z M139.054585,7.93413744 L141.582484,7.93413744 L141.582484,6.74117548 L139.054585,6.74117548 L139.054585,7.93413744 Z" id="Fill-14" fill="#060101"></path>
                <path d="M151.871606,11.9045681 L151.871606,8.26790866 L147.87503,8.26790866 L147.87503,7.4003223 L154.704599,7.4003223 L154.704599,8.26790866 L153.144959,8.26790866 L153.144959,12.0819451 C153.144959,12.920153 152.67601,13.3169466 151.902705,13.3169466 L149.776639,13.3169466 L149.776639,12.3232418 L151.403272,12.3232418 C151.777324,12.3232418 151.871606,12.291282 151.871606,11.9045681 Z M144.866381,7.31722676 C145.978583,6.78927501 147.321018,5.12724114 147.722852,3.94362127 L146.440034,3.94362127 C146.120558,4.72208888 145.478289,5.61241588 144.862202,6.15708507 L144.866381,7.31722676 Z M146.432412,6.79935465 C146.083681,7.65096109 145.316891,8.558866 144.655323,9.09603692 L144.656306,10.2216374 C144.999998,10.0602403 145.39507,9.79288405 145.768508,9.463452 L145.768508,13.4018859 L146.940205,13.4018859 L146.940205,8.17547101 C147.279102,7.71488075 147.553833,7.22810801 147.699374,6.79935465 L146.432412,6.79935465 Z M148.273421,5.23061888 L154.088266,5.23061888 L154.088266,4.36229499 L148.273421,4.36229499 L148.273421,5.23061888 Z" id="Fill-16" fill="#060101"></path>
                <path d="M84.5243978,5.55351146 L93.0242364,5.55351146 L93.0242364,4.49588707 L84.5243978,4.49588707 L84.5243978,5.55351146 Z M84.150222,13.1589667 L93.3998873,13.1589667 L93.3998873,12.0627446 L84.150222,12.0627446 L84.150222,13.1589667 Z M84.8647699,9.25667192 L92.6887812,9.25667192 L92.6887812,8.19830999 L84.8647699,8.19830999 L84.8647699,9.25667192 Z" id="Fill-18" fill="#060101"></path>
            </g>
        </g>
    </g>
</svg>